<svg width="33" height="124" viewBox="0 0 33 124" fill="none" xmlns="http://www.w3.org/2000/svg">
<path fill-rule="evenodd" clip-rule="evenodd" d="M0 2C0 0.895431 0.895431 0 2 0H31C32.1046 0 33 0.895431 33 2V17C33 18.1046 32.1046 19 31 19H2C0.895431 19 0 18.1046 0 17V12H0.5C1.88071 12 3 10.8807 3 9.5C3 8.11929 1.88071 7 0.5 7H0V2ZM7 9.49997C7 7.01469 9.01472 4.99997 11.5 4.99997H24.5C26.9853 4.99997 29 7.01469 29 9.49997C29 11.9853 26.9853 14 24.5 14H11.5C9.01472 14 7 11.9853 7 9.49997Z" fill="#D9D9D9" fill-opacity="0.8"/>
<path fill-rule="evenodd" clip-rule="evenodd" d="M0 23C0 21.8954 0.895431 21 2 21H31C32.1046 21 33 21.8954 33 23V38C33 39.1046 32.1046 40 31 40H2C0.895431 40 0 39.1046 0 38V33H0.5C1.88071 33 3 31.8807 3 30.5C3 29.1193 1.88071 28 0.5 28H0V23ZM7 30.5C7 28.0147 9.01472 26 11.5 26H24.5C26.9853 26 29 28.0147 29 30.5C29 32.9853 26.9853 35 24.5 35H11.5C9.01472 35 7 32.9853 7 30.5Z" fill="#D9D9D9" fill-opacity="0.8"/>
<path fill-rule="evenodd" clip-rule="evenodd" d="M0 44C0 42.8954 0.895431 42 2 42H31C32.1046 42 33 42.8954 33 44V59C33 60.1046 32.1046 61 31 61H2C0.895431 61 0 60.1046 0 59V54H0.5C1.88071 54 3 52.8807 3 51.5C3 50.1193 1.88071 49 0.5 49H0V44ZM7 51.5C7 49.0147 9.01472 47 11.5 47H24.5C26.9853 47 29 49.0147 29 51.5C29 53.9853 26.9853 56 24.5 56H11.5C9.01472 56 7 53.9853 7 51.5Z" fill="#D9D9D9" fill-opacity="0.8"/>
<path fill-rule="evenodd" clip-rule="evenodd" d="M0 65C0 63.8954 0.895431 63 2 63H31C32.1046 63 33 63.8954 33 65V80C33 81.1046 32.1046 82 31 82H2C0.895431 82 0 81.1046 0 80V75H0.5C1.88071 75 3 73.8807 3 72.5C3 71.1193 1.88071 70 0.5 70H0V65ZM7 72.5C7 70.0147 9.01472 68 11.5 68H24.5C26.9853 68 29 70.0147 29 72.5C29 74.9853 26.9853 77 24.5 77H11.5C9.01472 77 7 74.9853 7 72.5Z" fill="#D9D9D9" fill-opacity="0.8"/>
<path fill-rule="evenodd" clip-rule="evenodd" d="M0 86C0 84.8954 0.895431 84 2 84H31C32.1046 84 33 84.8954 33 86V101C33 102.105 32.1046 103 31 103H2C0.895431 103 0 102.105 0 101V96H0.5C1.88071 96 3 94.8807 3 93.5C3 92.1193 1.88071 91 0.5 91H0V86ZM7 93.5C7 91.0147 9.01472 89 11.5 89H24.5C26.9853 89 29 91.0147 29 93.5C29 95.9853 26.9853 98 24.5 98H11.5C9.01472 98 7 95.9853 7 93.5Z" fill="#D9D9D9" fill-opacity="0.8"/>
<path fill-rule="evenodd" clip-rule="evenodd" d="M0 107C0 105.895 0.895431 105 2 105H31C32.1046 105 33 105.895 33 107V122C33 123.105 32.1046 124 31 124H2C0.895431 124 0 123.105 0 122V117H0.5C1.88071 117 3 115.881 3 114.5C3 113.119 1.88071 112 0.5 112H0V107ZM7 114.5C7 112.015 9.01472 110 11.5 110H24.5C26.9853 110 29 112.015 29 114.5C29 116.985 26.9853 119 24.5 119H11.5C9.01472 119 7 116.985 7 114.5Z" fill="#D9D9D9" fill-opacity="0.8"/>
</svg>
