<svg width="844" height="482" viewBox="0 0 844 482" fill="none" xmlns="http://www.w3.org/2000/svg">
<g clip-path="url(#clip0_227_9668)">
<path d="M72.8577 185.916C72.8577 185.916 83.5912 189.344 101.847 195.119L98.6852 212.809C80.5295 209.897 63.8213 216.853 59.7277 229.933C55.0679 245.011 68.2148 262.501 89.2329 268.992C110.084 275.482 130.803 268.576 135.447 253.498C139.741 239.636 128.907 223.693 110.702 216.171L115.811 199.613C138.926 207.085 170.094 217.103 206.088 228.603L202.66 247.408C184.504 244.495 167.996 251.452 163.902 264.632C159.193 279.71 172.34 297.05 193.291 303.54C214.259 310.03 234.794 303.124 239.454 288.097C243.797 274.185 232.964 258.292 214.758 250.836L220.183 233.096C248.141 242.049 278.779 251.701 310.312 261.886L306.684 282.139C288.529 279.127 271.92 286.016 267.926 299.263C263.216 314.29 276.363 331.83 297.265 338.271C318.283 344.761 338.935 337.755 343.629 322.827C347.873 308.915 336.939 292.873 318.783 285.45L324.608 266.429C355.694 276.298 387.697 286.566 419.231 296.584L415.653 316.72C397.564 313.808 381.039 320.764 376.895 333.994C372.235 348.922 385.482 366.412 406.334 372.903C427.186 379.393 447.954 372.487 452.647 357.459C456.94 343.597 445.84 327.654 427.701 320.198L433.575 301.177C466.392 311.661 498.394 321.83 528.348 331.448L524.77 351.435C506.614 348.423 489.956 355.379 485.812 368.559C481.152 383.586 494.399 401.127 515.368 407.517C536.07 413.957 556.871 407.051 561.582 392.124C565.875 378.111 554.892 362.219 536.737 354.796L542.661 335.991C578.706 347.49 611.156 357.775 637.335 366.096L633.707 386.083C615.551 383.17 598.893 390.126 594.849 403.357C590.09 418.284 603.337 435.775 624.288 442.265C645.19 448.755 665.792 441.849 670.503 426.771C674.796 412.909 663.963 396.966 645.757 389.444L651.532 370.639C680.621 379.842 699.327 385.767 701.939 386.532C719.379 391.441 745.439 402.591 760.218 384.086C787.41 350.603 808.579 325.856 840.68 325.856C872.881 325.856 2692.5 366.712 2743.24 369.209C2794.06 371.772 2801.05 396.568 2774.53 448.241C2691.97 589.797 2691.2 693.122 2691.2 716.123C2691.2 777.931 2728.36 893.674 2913.33 893.674C3109.8 893.674 3194.09 781.36 3431.97 781.36C3474.85 781.36 3564.02 807.837 3696.12 873.838C4307.37 1194.27 4571.59 860.641 4604.6 586.47C4637.64 312.301 4626.02 238.01 4626.02 238.01C4626.02 238.01 4637.57 163.57 4604.6 -110.599C4571.57 -384.671 4307.32 -718.284 3696.29 -397.801C3564.24 -331.801 3475.02 -305.323 3432.14 -305.323C3203 -305.323 3144.72 -425.927 2920.53 -425.927C2696.36 -425.927 2677.75 -258.763 2791.76 -216.476C2791.76 -216.476 3046.8 -138.509 3046.8 -19.4553C3046.8 99.3508 2908.11 110.598 2908.11 110.598L840.811 131.45C840.811 131.45 699.761 141.518 580.756 89.4793C453.249 26.291 387.518 25.1107 326.943 58.4925C266.103 91.7758 237.73 81.9572 202.915 52.4016C168.301 22.5465 138.595 0.813896 82.829 17.0711C20.7068 34.9608 1.01722 160.052 72.8577 185.916ZM3809.98 130.55L3733.87 376.764C3726.61 400.229 3701.67 413.426 3678.08 406.153C3654.62 398.947 3641.42 373.835 3648.65 350.369L3724.76 104.206C3732.02 80.7417 3757.01 67.5448 3780.55 74.967C3804.06 82.0399 3817.24 107.085 3809.98 130.55ZM4280.91 -269.033C4320.11 -269.033 4351.92 -238.046 4351.92 -198.739C4351.92 -159.531 4320.11 -128.696 4280.91 -128.696L3651.63 -128.696C3612.48 -128.696 3580.68 -159.566 3580.68 -198.739C3580.68 -238.046 3612.48 -269.399 3651.63 -269.399L4280.91 -269.033ZM3040.64 376.781C3040.64 376.781 3064.2 375.499 3064.2 344.529C3064.2 313.659 3065.43 135.175 3065.43 135.175C3065.43 117.851 3061.7 104.239 3044.31 104.239L3020.85 104.239C3020.85 104.239 3075.3 73.3019 3075.3 -13.4001C3075.3 -136.714 2921.37 -198.155 2830.79 -234.001C2790.6 -249.944 2751.59 -259.929 2751.59 -310.984C2751.59 -382.092 2920.9 -445.434 3182.85 -332.768C3313.98 -276.17 3407.99 -264.472 3513.71 -292.079C3567.28 -307.572 3650.25 -346.529 3650.25 -346.529L3650.25 -293.975C3598.05 -293.259 3555.88 -250.925 3555.88 -198.737C3555.88 -146.996 3598.05 -104.61 3650.21 -103.894L3650.16 34.9648L3620.3 34.9648C3606.61 34.9648 3595.46 45.948 3595.46 59.6112L3595.46 421.419C3595.46 435.015 3606.61 446.165 3620.3 446.165L3650.06 446.165L3650.01 584.807C3650.01 584.807 3654.97 608.788 3623.58 620.337C3408.88 689.715 2850.74 570.027 2850.74 376.785L3040.64 376.781ZM669.967 297.433C682.281 297.433 692.249 307.501 692.249 319.766C692.249 332.131 682.332 342.05 669.967 342.05C657.552 342.05 647.634 332.131 647.634 319.766C647.667 307.452 657.535 297.433 669.967 297.433ZM561.016 262.769C573.281 262.769 583.299 272.687 583.299 285.102C583.299 297.317 573.331 307.385 561.016 307.385C548.602 307.385 538.684 297.317 538.684 285.102C538.734 272.737 548.602 262.769 561.016 262.769ZM452.032 228.17C464.147 228.17 474.265 238.089 474.265 250.504C474.265 262.719 464.197 272.687 452.032 272.687C439.668 272.687 429.699 262.769 429.699 250.504C429.733 238.089 439.651 228.17 452.032 228.17ZM347.938 193.406C360.153 193.406 370.171 203.274 370.171 215.739C370.171 228.104 360.203 238.022 347.938 238.022C335.674 238.022 325.539 228.104 325.539 215.739C325.606 203.324 335.674 193.406 347.938 193.406ZM238.886 158.691C251.25 158.691 261.218 168.86 261.218 180.975C261.218 193.39 251.3 203.308 238.886 203.308C226.621 203.308 216.553 193.44 216.553 180.975C216.553 168.86 226.571 158.691 238.886 158.691ZM129.953 124.177C142.267 124.177 152.285 134.045 152.285 146.51C152.285 158.575 142.318 168.843 129.953 168.843C117.588 168.843 107.62 158.625 107.62 146.51C107.62 134.045 117.538 124.177 129.953 124.177Z" fill="#101010"/>
</g>
<defs>
<clipPath id="clip0_227_9668">
<rect width="844" height="482" fill="white" transform="translate(844 482) rotate(-180)"/>
</clipPath>
</defs>
</svg>
