<svg width="3274" height="1091" viewBox="0 0 3274 1091" fill="none" xmlns="http://www.w3.org/2000/svg">
<g clip-path="url(#clip0_227_9668)">
<path d="M33.6138 508.457C33.6138 508.457 41.2478 510.896 54.2317 515.003L51.983 527.584C39.0702 525.513 27.1869 530.46 24.2754 539.763C20.9613 550.486 30.3117 562.925 45.2603 567.542C60.0904 572.157 74.8259 567.246 78.1292 556.522C81.1828 546.663 73.4778 535.325 60.5296 529.975L64.1631 518.199C80.6031 523.513 102.771 530.638 128.371 538.816L125.932 552.191C113.02 550.12 101.279 555.067 98.367 564.441C95.0174 575.164 104.368 587.497 119.269 592.113C134.182 596.729 148.787 591.817 152.101 581.129C155.19 571.235 147.486 559.932 134.537 554.629L138.396 542.012C158.28 548.38 180.07 555.245 202.498 562.488L199.917 576.892C187.005 574.75 175.192 579.65 172.351 589.071C169.002 599.758 178.352 612.233 193.218 616.814C208.166 621.43 222.855 616.447 226.193 605.83C229.211 595.936 221.435 584.526 208.522 579.247L212.665 565.719C234.774 572.738 257.536 580.04 279.963 587.165L277.419 601.487C264.553 599.416 252.8 604.363 249.853 613.772C246.539 624.389 255.96 636.829 270.791 641.444C285.621 646.06 300.392 641.148 303.729 630.461C306.783 620.602 298.888 609.263 285.987 603.96L290.165 590.432C313.505 597.889 336.266 605.121 357.57 611.962L355.025 626.176C342.112 624.034 330.264 628.981 327.317 638.355C324.003 649.043 333.425 661.518 348.338 666.063C363.062 670.643 377.856 665.731 381.207 655.115C384.26 645.149 376.449 633.846 363.536 628.567L367.75 615.192C393.386 623.371 416.465 630.686 435.084 636.603L432.504 650.818C419.591 648.747 407.744 653.694 404.867 663.104C401.482 673.72 410.904 686.16 425.805 690.776C440.671 695.391 455.324 690.48 458.674 679.757C461.728 669.897 454.023 658.559 441.075 653.209L445.181 639.835C465.87 646.38 479.175 650.593 481.032 651.138C493.436 654.629 511.971 662.559 522.482 649.398C541.821 625.584 556.878 607.984 579.708 607.984C602.611 607.984 1896.77 637.041 1932.86 638.818C1969 640.64 1973.97 658.275 1955.11 695.026C1896.39 795.702 1895.85 869.188 1895.85 885.547C1895.85 929.505 1922.27 1011.82 2053.83 1011.82C2193.56 1011.82 2253.51 931.945 2422.7 931.945C2453.2 931.945 2516.61 950.775 2610.57 997.716C3045.3 1225.61 3233.22 988.33 3256.7 793.336C3280.2 598.344 3271.94 545.507 3271.94 545.507C3271.94 545.507 3280.15 492.565 3256.7 297.572C3233.21 102.649 3045.27 -134.621 2610.69 93.3102C2516.77 140.25 2453.32 159.082 2422.82 159.082C2259.85 159.082 2218.4 73.3065 2058.95 73.3065C1899.51 73.3065 1886.28 192.196 1967.36 222.271C1967.36 222.271 2148.76 277.722 2148.76 362.394C2148.76 446.891 2050.12 454.89 2050.12 454.89L579.802 469.72C579.802 469.72 479.483 476.881 394.844 439.87C304.157 394.93 257.408 394.09 214.325 417.832C171.055 441.503 150.875 434.52 126.114 413.5C101.496 392.267 80.3678 376.81 40.7056 388.373C-3.4772 401.096 -17.4809 490.063 33.6138 508.457ZM2691.55 469.08L2637.42 644.191C2632.26 660.879 2614.51 670.265 2597.74 665.092C2581.05 659.968 2571.67 642.107 2576.8 625.418L2630.94 450.344C2636.1 433.656 2653.88 424.27 2670.61 429.549C2687.34 434.579 2696.71 452.392 2691.55 469.08ZM3026.48 184.892C3054.37 184.892 3076.99 206.93 3076.99 234.886C3076.99 262.771 3054.37 284.701 3026.48 284.701L2578.93 284.701C2551.08 284.701 2528.46 262.746 2528.46 234.886C2528.46 206.93 2551.08 184.631 2578.93 184.631L3026.48 184.892ZM2144.37 644.203C2144.37 644.203 2161.13 643.291 2161.13 621.265C2161.13 599.31 2162.01 472.37 2162.01 472.37C2162.01 460.049 2159.36 450.367 2146.99 450.367L2130.3 450.367C2130.3 450.367 2169.03 428.365 2169.03 366.701C2169.03 278.999 2059.54 235.301 1995.12 209.807C1966.54 198.468 1938.79 191.367 1938.79 155.056C1938.79 104.483 2059.21 59.4332 2245.52 139.563C2338.78 179.816 2405.64 188.136 2480.84 168.501C2518.93 157.482 2577.95 129.775 2577.95 129.775L2577.95 167.153C2540.82 167.662 2510.83 197.77 2510.83 234.887C2510.83 271.686 2540.82 301.831 2577.92 302.34L2577.88 401.099L2556.65 401.099C2546.91 401.099 2538.98 408.91 2538.98 418.628L2538.98 675.95C2538.98 685.619 2546.91 693.549 2556.65 693.549L2577.81 693.549L2577.77 792.153C2577.77 792.153 2581.3 809.209 2558.98 817.423C2406.27 866.765 2009.31 781.642 2009.31 644.206L2144.37 644.203ZM458.293 587.77C467.051 587.77 474.141 594.93 474.141 603.653C474.141 612.447 467.087 619.501 458.293 619.501C449.463 619.501 442.409 612.447 442.409 603.653C442.433 594.895 449.451 587.77 458.293 587.77ZM380.804 563.116C389.527 563.116 396.653 570.17 396.653 578.999C396.653 587.687 389.563 594.847 380.804 594.847C371.975 594.847 364.921 587.687 364.921 578.999C364.956 570.206 371.975 563.116 380.804 563.116ZM303.292 538.509C311.909 538.509 319.105 545.563 319.105 554.393C319.105 563.08 311.944 570.17 303.292 570.17C294.498 570.17 287.408 563.116 287.408 554.393C287.432 545.563 294.486 538.509 303.292 538.509ZM229.258 513.784C237.946 513.784 245.071 520.803 245.071 529.668C245.071 538.462 237.981 545.516 229.258 545.516C220.535 545.516 213.327 538.462 213.327 529.668C213.375 520.838 220.535 513.784 229.258 513.784ZM151.697 489.095C160.491 489.095 167.581 496.326 167.581 504.943C167.581 513.773 160.527 520.827 151.697 520.827C142.974 520.827 135.814 513.808 135.814 504.943C135.814 496.326 142.939 489.095 151.697 489.095ZM74.2212 464.547C82.9796 464.547 90.1048 471.566 90.1048 480.431C90.1048 489.012 83.0154 496.315 74.2212 496.315C65.4274 496.315 58.3377 489.048 58.3377 480.431C58.3377 471.566 65.3917 464.547 74.2212 464.547Z" fill="#101010"/>
<path d="M2999.4 271.091C3019.5 271.091 3035.79 254.841 3035.79 234.768C3035.79 214.517 3019.47 198.266 2999.4 198.266C2979.29 198.266 2963 214.517 2963 234.768C2963 254.806 2979.29 271.091 2999.4 271.091Z" fill="#101010"/>
<path d="M2784.42 271.091C2804.53 271.091 2820.82 254.841 2820.82 234.768C2820.82 214.517 2804.49 198.266 2784.42 198.266C2764.31 198.266 2747.99 214.517 2747.99 234.768C2747.99 254.806 2764.31 271.091 2784.42 271.091Z" fill="#101010"/>
<path d="M2609.38 239.095L2636.22 239.095C2638.12 246.042 2644.22 251.167 2651.72 251.167C2659.21 251.167 2665.32 246.042 2667.21 239.095L2694.01 239.095L2694.01 230.655L2667.21 230.655C2665.32 223.708 2659.21 218.37 2651.72 218.37C2644.22 218.37 2638.12 223.684 2636.22 230.655L2609.39 230.655L2609.38 239.095Z" fill="#101010"/>
</g>
<defs>
<clipPath id="clip0_227_9668">
<rect width="3274" height="1091" fill="white" transform="translate(3274 1091) rotate(-180)"/>
</clipPath>
</defs>
</svg>
