<svg width="1500" height="1131" viewBox="0 0 1500 1131" fill="none" xmlns="http://www.w3.org/2000/svg">
<g clip-path="url(#clip0_254_68)">
<path d="M-1345.38 526.085C-1345.38 526.085 -1337.75 528.523 -1324.77 532.63L-1327.02 545.212C-1339.93 543.14 -1351.81 548.088 -1354.72 557.39C-1358.04 568.114 -1348.69 580.553 -1333.74 585.169C-1318.91 589.785 -1304.17 584.873 -1300.87 574.15C-1297.82 564.291 -1305.52 552.952 -1318.47 547.602L-1314.83 535.826C-1298.39 541.14 -1276.23 548.265 -1250.63 556.444L-1253.07 569.818C-1265.98 567.747 -1277.72 572.694 -1280.63 582.068C-1283.98 592.792 -1274.63 605.125 -1259.73 609.741C-1244.82 614.356 -1230.21 609.445 -1226.9 598.757C-1223.81 588.862 -1231.51 577.559 -1244.46 572.257L-1240.6 559.64C-1220.72 566.007 -1198.93 572.872 -1176.5 580.115L-1179.08 594.52C-1191.99 592.377 -1203.81 597.277 -1206.65 606.698C-1210 617.386 -1200.65 629.861 -1185.78 634.441C-1170.83 639.057 -1156.14 634.074 -1152.8 623.458C-1149.79 613.563 -1157.56 602.153 -1170.48 596.875L-1166.33 583.347C-1144.22 590.365 -1121.46 597.668 -1099.03 604.793L-1101.58 619.114C-1114.44 617.043 -1126.2 621.99 -1129.15 631.4C-1132.46 642.016 -1123.04 654.456 -1108.21 659.072C-1093.38 663.688 -1078.61 658.776 -1075.27 648.088C-1072.22 638.229 -1080.11 626.89 -1093.01 621.588L-1088.83 608.06C-1065.49 615.516 -1042.73 622.748 -1021.43 629.589L-1023.97 643.804C-1036.89 641.662 -1048.73 646.609 -1051.68 655.983C-1054.99 666.67 -1045.57 679.145 -1030.66 683.69C-1015.94 688.271 -1001.14 683.359 -997.791 672.742C-994.738 662.776 -1002.55 651.473 -1015.46 646.195L-1011.25 632.82C-985.612 640.998 -962.533 648.313 -943.914 654.231L-946.494 668.446C-959.407 666.374 -971.255 671.322 -974.131 680.731C-977.516 691.348 -968.094 703.787 -953.193 708.403C-938.327 713.019 -923.674 708.107 -920.324 697.384C-917.27 687.525 -924.975 676.186 -937.924 670.837L-933.817 657.462C-913.128 664.007 -899.823 668.221 -897.966 668.765C-885.562 672.257 -867.027 680.187 -856.516 667.025C-837.177 643.212 -822.12 625.612 -799.29 625.612C-776.388 625.612 103.075 657.041 139.162 658.818C175.309 660.64 180.278 678.275 161.413 715.026C102.695 815.702 102.15 889.188 102.15 905.547C102.15 949.505 128.579 1031.82 260.135 1031.82C399.867 1031.82 459.815 951.945 629.002 951.945C659.501 951.945 722.918 970.775 816.871 1017.72C1251.61 1245.61 1439.53 1008.33 1463.01 813.336C1486.5 618.344 1478.24 565.507 1478.24 565.507C1478.24 565.507 1486.46 512.565 1463.01 317.572C1439.52 122.649 1251.58 -114.621 816.993 113.31C723.076 160.25 659.623 179.082 629.123 179.082C466.157 179.082 424.707 93.3065 265.256 93.3065C105.816 93.3065 92.5845 212.196 173.669 242.271C173.669 242.271 355.064 297.722 355.064 382.394C355.064 466.891 256.423 474.89 256.423 474.89L-799.196 487.347C-799.196 487.347 -899.515 494.508 -984.154 457.498C-1074.84 412.557 -1121.59 411.718 -1164.67 435.459C-1207.94 459.131 -1228.12 452.148 -1252.88 431.128C-1277.5 409.894 -1298.63 394.438 -1338.29 406C-1382.48 418.723 -1396.48 507.69 -1345.38 526.085ZM1232.79 204.892C1260.67 204.892 1283.29 226.93 1283.29 254.886C1283.29 282.771 1260.67 304.701 1232.79 304.701L785.234 304.701C757.384 304.701 734.767 282.746 734.767 254.886C734.767 226.93 757.385 204.631 785.234 204.631L1232.79 204.892ZM350.677 664.203C350.677 664.203 367.437 663.291 367.437 641.265C367.437 619.31 368.313 492.37 368.313 492.37C368.313 480.049 365.661 470.367 353.293 470.367L336.605 470.367C336.605 470.367 375.331 448.365 375.331 386.701C375.331 298.999 265.849 255.301 201.426 229.807C172.843 218.468 145.099 211.367 145.099 175.056C145.099 124.483 265.516 79.4332 451.822 159.563C545.087 199.816 611.949 208.136 687.14 188.501C725.239 177.482 784.253 149.775 784.253 149.775L784.253 187.153C747.124 187.662 717.134 217.77 717.134 254.887C717.134 291.686 747.125 321.831 784.22 322.34L784.185 421.099L784.253 438.628C784.253 445.5 784.253 450.283 784.253 460L784.253 693.5C784.253 703 784.253 702.5 784.253 708L784.114 713.549L784.078 812.153C784.078 812.153 787.605 829.209 765.283 837.423C612.579 886.765 215.619 801.642 215.619 664.206L350.677 664.203ZM-920.705 605.397C-911.947 605.397 -904.857 612.558 -904.857 621.281C-904.857 630.074 -911.911 637.129 -920.705 637.129C-929.535 637.129 -936.589 630.075 -936.589 621.281C-936.565 612.522 -929.547 605.397 -920.705 605.397ZM-998.194 580.743C-989.471 580.743 -982.345 587.797 -982.345 596.627C-982.345 605.314 -989.435 612.475 -998.194 612.475C-1007.02 612.475 -1014.08 605.314 -1014.08 596.627C-1014.04 587.833 -1007.02 580.743 -998.194 580.743ZM-1075.71 556.137C-1067.09 556.137 -1059.89 563.191 -1059.89 572.02C-1059.89 580.708 -1067.05 587.797 -1075.71 587.797C-1084.5 587.797 -1091.59 580.743 -1091.59 572.02C-1091.57 563.191 -1084.51 556.137 -1075.71 556.137ZM-1149.74 531.412C-1141.05 531.412 -1133.93 538.43 -1133.93 547.295C-1133.93 556.089 -1141.02 563.143 -1149.74 563.143C-1158.46 563.143 -1165.67 556.089 -1165.67 547.295C-1165.62 538.466 -1158.46 531.412 -1149.74 531.412ZM-1227.3 506.722C-1218.51 506.722 -1211.42 513.954 -1211.42 522.57C-1211.42 531.4 -1218.47 538.454 -1227.3 538.454C-1236.02 538.454 -1243.18 531.435 -1243.18 522.57C-1243.18 513.954 -1236.06 506.722 -1227.3 506.722ZM-1304.78 482.175C-1296.02 482.175 -1288.89 489.193 -1288.89 498.058C-1288.89 506.639 -1295.98 513.942 -1304.78 513.942C-1313.57 513.942 -1320.66 506.675 -1320.66 498.058C-1320.66 489.193 -1313.61 482.175 -1304.78 482.175Z" fill="#101010"/>
</g>
<defs>
<clipPath id="clip0_254_68">
<rect width="1500" height="1131" fill="white"/>
</clipPath>
</defs>
</svg>
