<svg width="63" height="66" viewBox="0 0 63 66" fill="none" xmlns="http://www.w3.org/2000/svg">
<path d="M44.0908 54.6504C40.3953 56.784 23.7569 65.5401 17.4202 51.4551L17.42 51.4548C16.026 48.2068 15.1327 44.7667 14.771 41.2519C14.3702 37.6858 14.2711 34.0925 14.4744 30.511C14.6373 27.3696 14.9602 24.2385 15.4422 21.1306C15.6284 19.933 16.4818 13.8789 17.7903 12.4134C18.6687 11.4199 19.8908 10.7963 21.2112 10.6686C22.5444 10.5591 29.4428 13.0575 31.6286 13.9759L31.6289 13.9757C34.581 15.2007 37.4634 16.5885 40.2628 18.1327C43.313 19.7988 46.2045 21.7421 48.9005 23.9379C51.0677 25.6901 53.003 27.7121 54.6587 29.9552C63.6842 42.4778 47.7861 52.5167 44.0907 54.6503L44.0908 54.6504Z" fill="#F4F4F4"/>
<path d="M51.8562 37.7951L53.3079 36.957L48.5216 28.6669L47.0699 29.505L51.8562 37.7951Z" fill="#25C8FC"/>
<path d="M44.0982 31.2207L46.6649 35.6663L45.5761 36.2949L46.244 37.4517L47.3327 36.8231L48.3411 38.5696L49.7246 37.7708L48.7163 36.0243L49.7937 35.4023L49.1258 34.2455L48.0484 34.8675L45.4818 30.4219L44.0982 31.2207Z" fill="#25C8FC"/>
<path d="M40.1803 33.2861C38.7174 34.1308 38.1223 35.4572 38.5913 36.8195L39.8728 36.0796C39.7238 35.455 40.0526 34.872 40.8124 34.4333C41.731 33.903 42.5408 34.1008 43.2125 35.0285L39.0003 37.4755L39.2425 37.8951C40.2509 39.6416 41.9651 40.1489 43.6435 39.1798C45.288 38.2304 45.7328 36.3557 44.7179 34.5978C43.7161 32.8627 41.8474 32.3236 40.1803 33.2861ZM42.9774 38.0523C42.1496 38.5303 41.3219 38.3277 40.8767 37.5565L43.6892 35.9327C44.0376 36.8505 43.794 37.5809 42.9774 38.0523Z" fill="#25C8FC"/>
<path d="M35.6425 36.1026L37.4758 39.2781C37.9996 40.1853 37.7154 40.924 37.0576 41.3038C36.3999 41.6835 35.738 41.5062 35.2862 40.7237L33.3743 37.4122L31.9907 38.211L33.8241 41.3864C34.3544 42.305 34.0929 43.0306 33.4238 43.4169C32.766 43.7967 32.0928 43.6259 31.6279 42.8207L29.7226 39.5205L28.3503 40.3128L30.4652 43.9758C31.2116 45.2687 32.4316 45.6531 33.7925 44.8674C34.643 44.3763 35.0585 43.5769 34.9688 42.7668C35.6369 43.243 36.4689 43.3221 37.3195 42.8311C38.1246 42.3662 38.4822 41.6759 38.4972 41.0472L38.9904 41.6395L40.2606 40.9062L37.026 35.3038L35.6425 36.1026Z" fill="#25C8FC"/>
<path d="M26.1756 41.5684L28.0089 44.7438C28.5327 45.6511 28.2485 46.3897 27.5907 46.7695C26.933 47.1493 26.2711 46.9719 25.8193 46.1894L23.9074 42.8779L22.5238 43.6767L24.3572 46.8521C24.8875 47.7707 24.626 48.4963 23.9569 48.8826C23.2991 49.2624 22.6259 49.0916 22.161 48.2864L20.2557 44.9862L18.8834 45.7785L20.9983 49.4416C21.7447 50.7344 22.9647 51.1188 24.3255 50.3331C25.1761 49.842 25.5916 49.0427 25.5019 48.2325C26.17 48.7087 27.002 48.7879 27.8525 48.2968C28.6577 47.8319 29.0153 47.1416 29.0303 46.513L29.5235 47.1053L30.7937 46.3719L27.5591 40.7696L26.1756 41.5684Z" fill="#25C8FC"/>
</svg>
