<svg width="1198" height="6" viewBox="0 0 1198 6" fill="none" xmlns="http://www.w3.org/2000/svg">
<line x1="2.46424" y1="0.185695" x2="0.464238" y2="5.1857" stroke="#141414"/>
<line x1="2.46424" y1="0.185695" x2="0.464238" y2="5.1857" stroke="#141414"/>
<line x1="7.46424" y1="0.185695" x2="5.46424" y2="5.1857" stroke="#141414"/>
<line x1="12.4642" y1="0.185695" x2="10.4642" y2="5.1857" stroke="#141414"/>
<line x1="17.4642" y1="0.185695" x2="15.4642" y2="5.1857" stroke="#141414"/>
<line x1="22.4642" y1="0.185695" x2="20.4642" y2="5.1857" stroke="#141414"/>
<line x1="27.4642" y1="0.185695" x2="25.4642" y2="5.1857" stroke="#141414"/>
<line x1="32.4642" y1="0.185695" x2="30.4642" y2="5.1857" stroke="#141414"/>
<line x1="37.4642" y1="0.185695" x2="35.4642" y2="5.1857" stroke="#141414"/>
<line x1="42.4642" y1="0.185695" x2="40.4642" y2="5.1857" stroke="#141414"/>
<line x1="47.4642" y1="0.185695" x2="45.4642" y2="5.1857" stroke="#141414"/>
<line x1="52.4642" y1="0.185695" x2="50.4642" y2="5.1857" stroke="#141414"/>
<line x1="57.4642" y1="0.185695" x2="55.4642" y2="5.1857" stroke="#141414"/>
<line x1="62.4642" y1="0.185695" x2="60.4642" y2="5.1857" stroke="#141414"/>
<line x1="67.4642" y1="0.185695" x2="65.4642" y2="5.1857" stroke="#141414"/>
<line x1="72.4642" y1="0.185695" x2="70.4642" y2="5.1857" stroke="#141414"/>
<line x1="77.4642" y1="0.185695" x2="75.4642" y2="5.1857" stroke="#141414"/>
<line x1="82.4642" y1="0.185695" x2="80.4642" y2="5.1857" stroke="#141414"/>
<line x1="87.4642" y1="0.185695" x2="85.4642" y2="5.1857" stroke="#141414"/>
<line x1="92.4642" y1="0.185695" x2="90.4642" y2="5.1857" stroke="#141414"/>
<line x1="97.4642" y1="0.185695" x2="95.4642" y2="5.1857" stroke="#141414"/>
<line x1="102.464" y1="0.185695" x2="100.464" y2="5.1857" stroke="#141414"/>
<line x1="107.464" y1="0.185695" x2="105.464" y2="5.1857" stroke="#141414"/>
<line x1="112.464" y1="0.185695" x2="110.464" y2="5.1857" stroke="#141414"/>
<line x1="117.464" y1="0.185695" x2="115.464" y2="5.1857" stroke="#141414"/>
<line x1="122.464" y1="0.185695" x2="120.464" y2="5.1857" stroke="#141414"/>
<line x1="127.464" y1="0.185695" x2="125.464" y2="5.1857" stroke="#141414"/>
<line x1="132.464" y1="0.185695" x2="130.464" y2="5.1857" stroke="#141414"/>
<line x1="137.464" y1="0.185695" x2="135.464" y2="5.1857" stroke="#141414"/>
<line x1="142.464" y1="0.185695" x2="140.464" y2="5.1857" stroke="#141414"/>
<line x1="147.464" y1="0.185695" x2="145.464" y2="5.1857" stroke="#141414"/>
<line x1="152.464" y1="0.185695" x2="150.464" y2="5.1857" stroke="#141414"/>
<line x1="157.464" y1="0.185695" x2="155.464" y2="5.1857" stroke="#141414"/>
<line x1="162.464" y1="0.185695" x2="160.464" y2="5.1857" stroke="#141414"/>
<line x1="167.464" y1="0.185695" x2="165.464" y2="5.1857" stroke="#141414"/>
<line x1="172.464" y1="0.185695" x2="170.464" y2="5.1857" stroke="#141414"/>
<line x1="177.464" y1="0.185695" x2="175.464" y2="5.1857" stroke="#141414"/>
<line x1="182.464" y1="0.185695" x2="180.464" y2="5.1857" stroke="#141414"/>
<line x1="187.464" y1="0.185695" x2="185.464" y2="5.1857" stroke="#141414"/>
<line x1="192.464" y1="0.185695" x2="190.464" y2="5.1857" stroke="#141414"/>
<line x1="197.464" y1="0.185695" x2="195.464" y2="5.1857" stroke="#141414"/>
<line x1="202.464" y1="0.185695" x2="200.464" y2="5.1857" stroke="#141414"/>
<line x1="207.464" y1="0.185695" x2="205.464" y2="5.1857" stroke="#141414"/>
<line x1="212.464" y1="0.185695" x2="210.464" y2="5.1857" stroke="#141414"/>
<line x1="217.464" y1="0.185695" x2="215.464" y2="5.1857" stroke="#141414"/>
<line x1="222.464" y1="0.185695" x2="220.464" y2="5.1857" stroke="#141414"/>
<line x1="227.464" y1="0.185695" x2="225.464" y2="5.1857" stroke="#141414"/>
<line x1="232.464" y1="0.185695" x2="230.464" y2="5.1857" stroke="#141414"/>
<line x1="237.464" y1="0.185695" x2="235.464" y2="5.1857" stroke="#141414"/>
<line x1="242.464" y1="0.185695" x2="240.464" y2="5.1857" stroke="#141414"/>
<line x1="247.464" y1="0.185695" x2="245.464" y2="5.1857" stroke="#141414"/>
<line x1="252.464" y1="0.185695" x2="250.464" y2="5.1857" stroke="#141414"/>
<line x1="257.464" y1="0.185695" x2="255.464" y2="5.1857" stroke="#141414"/>
<line x1="262.464" y1="0.185695" x2="260.464" y2="5.1857" stroke="#141414"/>
<line x1="267.464" y1="0.185695" x2="265.464" y2="5.1857" stroke="#141414"/>
<line x1="272.464" y1="0.185695" x2="270.464" y2="5.1857" stroke="#141414"/>
<line x1="277.464" y1="0.185695" x2="275.464" y2="5.1857" stroke="#141414"/>
<line x1="282.464" y1="0.185695" x2="280.464" y2="5.1857" stroke="#141414"/>
<line x1="287.464" y1="0.185695" x2="285.464" y2="5.1857" stroke="#141414"/>
<line x1="292.464" y1="0.185695" x2="290.464" y2="5.1857" stroke="#141414"/>
<line x1="297.464" y1="0.185695" x2="295.464" y2="5.1857" stroke="#141414"/>
<line x1="302.464" y1="0.185695" x2="300.464" y2="5.1857" stroke="#141414"/>
<line x1="307.464" y1="0.185695" x2="305.464" y2="5.1857" stroke="#141414"/>
<line x1="312.464" y1="0.185695" x2="310.464" y2="5.1857" stroke="#141414"/>
<line x1="317.464" y1="0.185695" x2="315.464" y2="5.1857" stroke="#141414"/>
<line x1="322.464" y1="0.185695" x2="320.464" y2="5.1857" stroke="#141414"/>
<line x1="327.464" y1="0.185695" x2="325.464" y2="5.1857" stroke="#141414"/>
<line x1="332.464" y1="0.185695" x2="330.464" y2="5.1857" stroke="#141414"/>
<line x1="337.464" y1="0.185695" x2="335.464" y2="5.1857" stroke="#141414"/>
<line x1="342.464" y1="0.185695" x2="340.464" y2="5.1857" stroke="#141414"/>
<line x1="347.464" y1="0.185695" x2="345.464" y2="5.1857" stroke="#141414"/>
<line x1="352.464" y1="0.185695" x2="350.464" y2="5.1857" stroke="#141414"/>
<line x1="357.464" y1="0.185695" x2="355.464" y2="5.1857" stroke="#141414"/>
<line x1="362.464" y1="0.185695" x2="360.464" y2="5.1857" stroke="#141414"/>
<line x1="367.464" y1="0.185695" x2="365.464" y2="5.1857" stroke="#141414"/>
<line x1="372.464" y1="0.185695" x2="370.464" y2="5.1857" stroke="#141414"/>
<line x1="377.464" y1="0.185695" x2="375.464" y2="5.1857" stroke="#141414"/>
<line x1="382.464" y1="0.185695" x2="380.464" y2="5.1857" stroke="#141414"/>
<line x1="387.464" y1="0.185695" x2="385.464" y2="5.1857" stroke="#141414"/>
<line x1="392.464" y1="0.185695" x2="390.464" y2="5.1857" stroke="#141414"/>
<line x1="397.464" y1="0.185695" x2="395.464" y2="5.1857" stroke="#141414"/>
<line x1="402.464" y1="0.185695" x2="400.464" y2="5.1857" stroke="#141414"/>
<line x1="407.464" y1="0.185695" x2="405.464" y2="5.1857" stroke="#141414"/>
<line x1="412.464" y1="0.185695" x2="410.464" y2="5.1857" stroke="#141414"/>
<line x1="417.464" y1="0.185695" x2="415.464" y2="5.1857" stroke="#141414"/>
<line x1="422.464" y1="0.185695" x2="420.464" y2="5.1857" stroke="#141414"/>
<line x1="427.464" y1="0.185695" x2="425.464" y2="5.1857" stroke="#141414"/>
<line x1="432.464" y1="0.185695" x2="430.464" y2="5.1857" stroke="#141414"/>
<line x1="437.464" y1="0.185695" x2="435.464" y2="5.1857" stroke="#141414"/>
<line x1="442.464" y1="0.185695" x2="440.464" y2="5.1857" stroke="#141414"/>
<line x1="447.464" y1="0.185695" x2="445.464" y2="5.1857" stroke="#141414"/>
<line x1="452.464" y1="0.185695" x2="450.464" y2="5.1857" stroke="#141414"/>
<line x1="457.464" y1="0.185695" x2="455.464" y2="5.1857" stroke="#141414"/>
<line x1="462.464" y1="0.185695" x2="460.464" y2="5.1857" stroke="#141414"/>
<line x1="467.464" y1="0.185695" x2="465.464" y2="5.1857" stroke="#141414"/>
<line x1="472.464" y1="0.185695" x2="470.464" y2="5.1857" stroke="#141414"/>
<line x1="477.464" y1="0.185695" x2="475.464" y2="5.1857" stroke="#141414"/>
<line x1="482.464" y1="0.185695" x2="480.464" y2="5.1857" stroke="#141414"/>
<line x1="487.464" y1="0.185695" x2="485.464" y2="5.1857" stroke="#141414"/>
<line x1="492.464" y1="0.185695" x2="490.464" y2="5.1857" stroke="#141414"/>
<line x1="497.464" y1="0.185695" x2="495.464" y2="5.1857" stroke="#141414"/>
<line x1="502.464" y1="0.185695" x2="500.464" y2="5.1857" stroke="#141414"/>
<line x1="507.464" y1="0.185695" x2="505.464" y2="5.1857" stroke="#141414"/>
<line x1="512.464" y1="0.185695" x2="510.464" y2="5.1857" stroke="#141414"/>
<line x1="517.464" y1="0.185695" x2="515.464" y2="5.1857" stroke="#141414"/>
<line x1="522.464" y1="0.185695" x2="520.464" y2="5.1857" stroke="#141414"/>
<line x1="527.464" y1="0.185695" x2="525.464" y2="5.1857" stroke="#141414"/>
<line x1="532.464" y1="0.185695" x2="530.464" y2="5.1857" stroke="#141414"/>
<line x1="537.464" y1="0.185695" x2="535.464" y2="5.1857" stroke="#141414"/>
<line x1="542.464" y1="0.185695" x2="540.464" y2="5.1857" stroke="#141414"/>
<line x1="547.464" y1="0.185695" x2="545.464" y2="5.1857" stroke="#141414"/>
<line x1="552.464" y1="0.185695" x2="550.464" y2="5.1857" stroke="#141414"/>
<line x1="557.464" y1="0.185695" x2="555.464" y2="5.1857" stroke="#141414"/>
<line x1="562.464" y1="0.185695" x2="560.464" y2="5.1857" stroke="#141414"/>
<line x1="567.464" y1="0.185695" x2="565.464" y2="5.1857" stroke="#141414"/>
<line x1="572.464" y1="0.185695" x2="570.464" y2="5.1857" stroke="#141414"/>
<line x1="577.464" y1="0.185695" x2="575.464" y2="5.1857" stroke="#141414"/>
<line x1="582.464" y1="0.185695" x2="580.464" y2="5.1857" stroke="#141414"/>
<line x1="587.464" y1="0.185695" x2="585.464" y2="5.1857" stroke="#141414"/>
<line x1="592.464" y1="0.185695" x2="590.464" y2="5.1857" stroke="#141414"/>
<line x1="597.464" y1="0.185695" x2="595.464" y2="5.1857" stroke="#141414"/>
<line x1="602.464" y1="0.185695" x2="600.464" y2="5.1857" stroke="#141414"/>
<line x1="607.464" y1="0.185695" x2="605.464" y2="5.1857" stroke="#141414"/>
<line x1="612.464" y1="0.185695" x2="610.464" y2="5.1857" stroke="#141414"/>
<line x1="617.464" y1="0.185695" x2="615.464" y2="5.1857" stroke="#141414"/>
<line x1="622.464" y1="0.185695" x2="620.464" y2="5.1857" stroke="#141414"/>
<line x1="627.464" y1="0.185695" x2="625.464" y2="5.1857" stroke="#141414"/>
<line x1="632.464" y1="0.185695" x2="630.464" y2="5.1857" stroke="#141414"/>
<line x1="637.464" y1="0.185695" x2="635.464" y2="5.1857" stroke="#141414"/>
<line x1="642.464" y1="0.185695" x2="640.464" y2="5.1857" stroke="#141414"/>
<line x1="647.464" y1="0.185695" x2="645.464" y2="5.1857" stroke="#141414"/>
<line x1="652.464" y1="0.185695" x2="650.464" y2="5.1857" stroke="#141414"/>
<line x1="657.464" y1="0.185695" x2="655.464" y2="5.1857" stroke="#141414"/>
<line x1="662.464" y1="0.185695" x2="660.464" y2="5.1857" stroke="#141414"/>
<line x1="667.464" y1="0.185695" x2="665.464" y2="5.1857" stroke="#141414"/>
<line x1="672.464" y1="0.185695" x2="670.464" y2="5.1857" stroke="#141414"/>
<line x1="677.464" y1="0.185695" x2="675.464" y2="5.1857" stroke="#141414"/>
<line x1="682.464" y1="0.185695" x2="680.464" y2="5.1857" stroke="#141414"/>
<line x1="687.464" y1="0.185695" x2="685.464" y2="5.1857" stroke="#141414"/>
<line x1="692.464" y1="0.185695" x2="690.464" y2="5.1857" stroke="#141414"/>
<line x1="697.464" y1="0.185695" x2="695.464" y2="5.1857" stroke="#141414"/>
<line x1="702.464" y1="0.185695" x2="700.464" y2="5.1857" stroke="#141414"/>
<line x1="707.464" y1="0.185695" x2="705.464" y2="5.1857" stroke="#141414"/>
<line x1="712.464" y1="0.185695" x2="710.464" y2="5.1857" stroke="#141414"/>
<line x1="717.464" y1="0.185695" x2="715.464" y2="5.1857" stroke="#141414"/>
<line x1="722.464" y1="0.185695" x2="720.464" y2="5.1857" stroke="#141414"/>
<line x1="727.464" y1="0.185695" x2="725.464" y2="5.1857" stroke="#141414"/>
<line x1="732.464" y1="0.185695" x2="730.464" y2="5.1857" stroke="#141414"/>
<line x1="737.464" y1="0.185695" x2="735.464" y2="5.1857" stroke="#141414"/>
<line x1="742.464" y1="0.185695" x2="740.464" y2="5.1857" stroke="#141414"/>
<line x1="747.464" y1="0.185695" x2="745.464" y2="5.1857" stroke="#141414"/>
<line x1="752.464" y1="0.185695" x2="750.464" y2="5.1857" stroke="#141414"/>
<line x1="757.464" y1="0.185695" x2="755.464" y2="5.1857" stroke="#141414"/>
<line x1="762.464" y1="0.185695" x2="760.464" y2="5.1857" stroke="#141414"/>
<line x1="767.464" y1="0.185695" x2="765.464" y2="5.1857" stroke="#141414"/>
<line x1="772.464" y1="0.185695" x2="770.464" y2="5.1857" stroke="#141414"/>
<line x1="777.464" y1="0.185695" x2="775.464" y2="5.1857" stroke="#141414"/>
<line x1="782.464" y1="0.185695" x2="780.464" y2="5.1857" stroke="#141414"/>
<line x1="787.464" y1="0.185695" x2="785.464" y2="5.1857" stroke="#141414"/>
<line x1="792.464" y1="0.185695" x2="790.464" y2="5.1857" stroke="#141414"/>
<line x1="797.464" y1="0.185695" x2="795.464" y2="5.1857" stroke="#141414"/>
<line x1="802.464" y1="0.185695" x2="800.464" y2="5.1857" stroke="#141414"/>
<line x1="807.464" y1="0.185695" x2="805.464" y2="5.1857" stroke="#141414"/>
<line x1="812.464" y1="0.185695" x2="810.464" y2="5.1857" stroke="#141414"/>
<line x1="817.464" y1="0.185695" x2="815.464" y2="5.1857" stroke="#141414"/>
<line x1="822.464" y1="0.185695" x2="820.464" y2="5.1857" stroke="#141414"/>
<line x1="827.464" y1="0.185695" x2="825.464" y2="5.1857" stroke="#141414"/>
<line x1="832.464" y1="0.185695" x2="830.464" y2="5.1857" stroke="#141414"/>
<line x1="837.464" y1="0.185695" x2="835.464" y2="5.1857" stroke="#141414"/>
<line x1="842.464" y1="0.185695" x2="840.464" y2="5.1857" stroke="#141414"/>
<line x1="847.464" y1="0.185695" x2="845.464" y2="5.1857" stroke="#141414"/>
<line x1="852.464" y1="0.185695" x2="850.464" y2="5.1857" stroke="#141414"/>
<line x1="857.464" y1="0.185695" x2="855.464" y2="5.1857" stroke="#141414"/>
<line x1="862.464" y1="0.185695" x2="860.464" y2="5.1857" stroke="#141414"/>
<line x1="867.464" y1="0.185695" x2="865.464" y2="5.1857" stroke="#141414"/>
<line x1="872.464" y1="0.185695" x2="870.464" y2="5.1857" stroke="#141414"/>
<line x1="877.464" y1="0.185695" x2="875.464" y2="5.1857" stroke="#141414"/>
<line x1="882.464" y1="0.185695" x2="880.464" y2="5.1857" stroke="#141414"/>
<line x1="887.464" y1="0.185695" x2="885.464" y2="5.1857" stroke="#141414"/>
<line x1="892.464" y1="0.185695" x2="890.464" y2="5.1857" stroke="#141414"/>
<line x1="897.464" y1="0.185695" x2="895.464" y2="5.1857" stroke="#141414"/>
<line x1="902.464" y1="0.185695" x2="900.464" y2="5.1857" stroke="#141414"/>
<line x1="907.464" y1="0.185695" x2="905.464" y2="5.1857" stroke="#141414"/>
<line x1="912.464" y1="0.185695" x2="910.464" y2="5.1857" stroke="#141414"/>
<line x1="917.464" y1="0.185695" x2="915.464" y2="5.1857" stroke="#141414"/>
<line x1="922.464" y1="0.185695" x2="920.464" y2="5.1857" stroke="#141414"/>
<line x1="927.464" y1="0.185695" x2="925.464" y2="5.1857" stroke="#141414"/>
<line x1="932.464" y1="0.185695" x2="930.464" y2="5.1857" stroke="#141414"/>
<line x1="937.464" y1="0.185695" x2="935.464" y2="5.1857" stroke="#141414"/>
<line x1="942.464" y1="0.185695" x2="940.464" y2="5.1857" stroke="#141414"/>
<line x1="947.464" y1="0.185695" x2="945.464" y2="5.1857" stroke="#141414"/>
<line x1="952.464" y1="0.185695" x2="950.464" y2="5.1857" stroke="#141414"/>
<line x1="957.464" y1="0.185695" x2="955.464" y2="5.1857" stroke="#141414"/>
<line x1="962.464" y1="0.185695" x2="960.464" y2="5.1857" stroke="#141414"/>
<line x1="967.464" y1="0.185695" x2="965.464" y2="5.1857" stroke="#141414"/>
<line x1="972.464" y1="0.185695" x2="970.464" y2="5.1857" stroke="#141414"/>
<line x1="977.464" y1="0.185695" x2="975.464" y2="5.1857" stroke="#141414"/>
<line x1="982.464" y1="0.185695" x2="980.464" y2="5.1857" stroke="#141414"/>
<line x1="987.464" y1="0.185695" x2="985.464" y2="5.1857" stroke="#141414"/>
<line x1="992.464" y1="0.185695" x2="990.464" y2="5.1857" stroke="#141414"/>
<line x1="997.464" y1="0.185695" x2="995.464" y2="5.1857" stroke="#141414"/>
<line x1="1002.46" y1="0.185695" x2="1000.46" y2="5.1857" stroke="#141414"/>
<line x1="1007.46" y1="0.185695" x2="1005.46" y2="5.1857" stroke="#141414"/>
<line x1="1012.46" y1="0.185695" x2="1010.46" y2="5.1857" stroke="#141414"/>
<line x1="1017.46" y1="0.185695" x2="1015.46" y2="5.1857" stroke="#141414"/>
<line x1="1022.46" y1="0.185695" x2="1020.46" y2="5.1857" stroke="#141414"/>
<line x1="1027.46" y1="0.185695" x2="1025.46" y2="5.1857" stroke="#141414"/>
<line x1="1032.46" y1="0.185695" x2="1030.46" y2="5.1857" stroke="#141414"/>
<line x1="1037.46" y1="0.185695" x2="1035.46" y2="5.1857" stroke="#141414"/>
<line x1="1042.46" y1="0.185695" x2="1040.46" y2="5.1857" stroke="#141414"/>
<line x1="1047.46" y1="0.185695" x2="1045.46" y2="5.1857" stroke="#141414"/>
<line x1="1052.46" y1="0.185695" x2="1050.46" y2="5.1857" stroke="#141414"/>
<line x1="1057.46" y1="0.185695" x2="1055.46" y2="5.1857" stroke="#141414"/>
<line x1="1062.46" y1="0.185695" x2="1060.46" y2="5.1857" stroke="#141414"/>
<line x1="1067.46" y1="0.185695" x2="1065.46" y2="5.1857" stroke="#141414"/>
<line x1="1072.46" y1="0.185695" x2="1070.46" y2="5.1857" stroke="#141414"/>
<line x1="1077.46" y1="0.185695" x2="1075.46" y2="5.1857" stroke="#141414"/>
<line x1="1082.46" y1="0.185695" x2="1080.46" y2="5.1857" stroke="#141414"/>
<line x1="1087.46" y1="0.185695" x2="1085.46" y2="5.1857" stroke="#141414"/>
<line x1="1092.46" y1="0.185695" x2="1090.46" y2="5.1857" stroke="#141414"/>
<line x1="1097.46" y1="0.185695" x2="1095.46" y2="5.1857" stroke="#141414"/>
<line x1="1102.46" y1="0.185695" x2="1100.46" y2="5.1857" stroke="#141414"/>
<line x1="1107.46" y1="0.185695" x2="1105.46" y2="5.1857" stroke="#141414"/>
<line x1="1112.46" y1="0.185695" x2="1110.46" y2="5.1857" stroke="#141414"/>
<line x1="1117.46" y1="0.185695" x2="1115.46" y2="5.1857" stroke="#141414"/>
<line x1="1122.46" y1="0.185695" x2="1120.46" y2="5.1857" stroke="#141414"/>
<line x1="1127.46" y1="0.185695" x2="1125.46" y2="5.1857" stroke="#141414"/>
<line x1="1132.46" y1="0.185695" x2="1130.46" y2="5.1857" stroke="#141414"/>
<line x1="1137.46" y1="0.185695" x2="1135.46" y2="5.1857" stroke="#141414"/>
<line x1="1142.46" y1="0.185695" x2="1140.46" y2="5.1857" stroke="#141414"/>
<line x1="1147.46" y1="0.185695" x2="1145.46" y2="5.1857" stroke="#141414"/>
<line x1="1152.46" y1="0.185695" x2="1150.46" y2="5.1857" stroke="#141414"/>
<line x1="1157.46" y1="0.185695" x2="1155.46" y2="5.1857" stroke="#141414"/>
<line x1="1162.46" y1="0.185695" x2="1160.46" y2="5.1857" stroke="#141414"/>
<line x1="1167.46" y1="0.185695" x2="1165.46" y2="5.1857" stroke="#141414"/>
<line x1="1172.46" y1="0.185695" x2="1170.46" y2="5.1857" stroke="#141414"/>
<line x1="1177.46" y1="0.185695" x2="1175.46" y2="5.1857" stroke="#141414"/>
<line x1="1182.46" y1="0.185695" x2="1180.46" y2="5.1857" stroke="#141414"/>
<line x1="1187.46" y1="0.185695" x2="1185.46" y2="5.1857" stroke="#141414"/>
<line x1="1192.46" y1="0.185695" x2="1190.46" y2="5.1857" stroke="#141414"/>
<line x1="1197.46" y1="0.185695" x2="1195.46" y2="5.1857" stroke="#141414"/>
</svg>
